<?xml version="1.0" encoding="UTF-8"?>
<svg id="Layer_2" data-name="Layer 2" xmlns="http://www.w3.org/2000/svg" viewBox="0 0 470.57 368.44">
  <defs>
    <style>
      .cls-1 {
        fill: #231f20;
      }

      .cls-2 {
        fill: #fff;
      }
    </style>
  </defs>
  <g id="Artworks">
    <g>
      <g>
        <g>
          <path class="cls-1" d="M188.38,47.04v28.33c-4.3-3.25-9.24-4.91-14.84-4.91-6.97,0-12.94,2.44-17.91,7.33-4.99,4.88-7.49,10.73-7.49,17.53,0,7.75,2.74,14.01,8.2,18.79,4.97,4.32,10.58,6.48,16.82,6.48,5.77,0,10.83-1.65,15.22-4.9v3.59h10.58V47.04h-10.58ZM184.01,106.1c-2.97,2.89-6.55,4.34-10.75,4.34-3.71,0-7.05-1.28-10-3.86-3.25-2.85-4.88-6.57-4.88-11.18,0-4.05,1.49-7.52,4.45-10.43,2.96-2.91,6.51-4.36,10.66-4.36s7.61,1.47,10.54,4.4c2.59,2.58,4.04,5.63,4.35,9.13v2.87c-.31,3.52-1.76,6.55-4.37,9.09Z"/>
          <g>
            <path class="cls-1" d="M229.54,109.03h34.67v10.25h-52.59l35.47-61.99h-29.66v-10.25h47.58l-35.47,61.99Z"/>
            <path class="cls-1" d="M320.63,57.29h-28.96v17.36h28.12v10.25h-28.12v24.14h28.96v10.25h-39.86V47.05h39.86v10.25Z"/>
            <path class="cls-1" d="M363.24,88.5l22.36,30.79h-13.33l-20.63-29.57h-1.97v29.57h-10.9V47.05h12.77c9.54,0,16.43,1.79,20.68,5.38,4.68,3.99,7.02,9.26,7.02,15.81,0,5.12-1.47,9.51-4.4,13.19-2.93,3.68-6.8,6.04-11.6,7.07ZM349.68,80.21h3.46c10.32,0,15.48-3.94,15.48-11.84,0-7.39-5.02-11.09-15.06-11.09h-3.89v22.92Z"/>
            <path class="cls-1" d="M395.06,82.84c0-10.17,3.73-18.9,11.18-26.2,7.42-7.3,16.34-10.95,26.76-10.95s19.12,3.68,26.48,11.04c7.39,7.36,11.09,16.2,11.09,26.53s-3.71,19.2-11.13,26.43c-7.45,7.27-16.45,10.9-27,10.9-9.33,0-17.7-3.23-25.12-9.68-8.18-7.14-12.26-16.5-12.26-28.07ZM406.05,82.95c0,7.98,2.68,14.54,8.05,19.68,5.33,5.14,11.49,7.71,18.48,7.71,7.58,0,13.97-2.62,19.18-7.85,5.21-5.3,7.81-11.75,7.81-19.35s-2.58-14.15-7.72-19.35c-5.12-5.24-11.45-7.85-18.99-7.85s-13.87,2.62-19.04,7.85c-5.18,5.18-7.77,11.56-7.77,19.17Z"/>
          </g>
        </g>
        <g>
          <path class="cls-1" d="M129.34.08c-6.58,1.24-12.34,18.71-15.35,27.19-2.44,6.87-5.05,13.94-7.65,21.07-.45-.58-.91-1.17-1.39-1.73-8.59-10.07-22.57-16.02-41.56-17.68-18.99-1.66-33.8,1.77-44.02,10.2C8.25,48.33,1.84,61.84.31,79.26c-.97,11.14.32,21.03,3.85,29.41,3.73,8.86,9.22,15.59,16.29,20.01,6.77,4.22,16.39,6.75,30.27,7.97l6.42.56c11.18.98,19.78.63,26.57-1.1.54,6.4,2.6,11.36,7.21,12.61,14.8,4.04,17.86-18.64,20.86-30.86,6.24-25.51,13.84-50.7,19.85-78.67,1.71-7.98,8.22-41.08-2.29-39.11Z"/>
          <path class="cls-2" d="M11.78,80.27c-.81,9.3.18,17.28,2.99,23.93,2.81,6.65,6.73,11.56,11.78,14.72,5.05,3.15,13.44,5.25,25.17,6.27l3.21.28,3.21.28c11.73,1.03,20.36.42,25.88-1.8,5.52-2.23,10.24-6.38,14.16-12.45,3.92-6.07,6.28-13.75,7.1-23.05,1.25-14.32-1.78-25.77-9.09-34.36-6.59-7.73-17.86-12.29-33.81-13.69-15.95-1.4-27.84,1.14-35.67,7.6-8.69,7.2-13.67,17.94-14.92,32.26ZM35.4,82.33c.96-11.03,4.71-14.12,5.91-15.12.39-.32,4.22-3.13,17.54-1.97,13.31,1.16,16.6,4.59,16.93,4.98,1.01,1.19,4.16,4.89,3.19,15.91-.44,5.08-1.55,9.1-3.19,11.65-1.17,1.81-2.06,2.56-2.4,2.75-.66.17-4.02.88-12.4.28l-5.2-.48-5.21-.43c-8.36-.87-11.54-2.15-12.16-2.43-.3-.25-1.05-1.14-1.88-3.12-1.17-2.79-1.56-6.95-1.12-12.03Z"/>
        </g>
      </g>
      <g>
        <g>
          <path class="cls-1" d="M303.78,307.68c-1.64-1.24-3.51-1.86-5.64-1.86-2.65,0-4.92.93-6.81,2.78-1.9,1.86-2.85,4.08-2.85,6.67,0,2.95,1.04,5.32,3.12,7.14,1.89,1.65,4.02,2.47,6.39,2.47,2.19,0,4.12-.63,5.79-1.86v1.37h4.02v-27.47h-4.02v10.77ZM302.12,319.36c-1.13,1.1-2.49,1.65-4.09,1.65-1.41,0-2.68-.49-3.8-1.47-1.24-1.08-1.86-2.5-1.86-4.25,0-1.54.57-2.86,1.69-3.97,1.12-1.11,2.47-1.66,4.05-1.66s2.9.56,4.01,1.67c1.05,1.05,1.59,2.31,1.65,3.75v.53c-.06,1.46-.6,2.71-1.66,3.74Z"/>
          <polygon class="cls-1" points="314.82 296.91 314.82 300.8 326.1 300.8 312.62 324.37 332.61 324.37 332.61 320.48 319.43 320.48 332.91 296.91 314.82 296.91"/>
          <polygon class="cls-1" points="338.91 324.37 354.06 324.37 354.06 320.48 343.05 320.48 343.05 311.3 353.74 311.3 353.74 307.4 343.05 307.4 343.05 300.8 354.06 300.8 354.06 296.91 338.91 296.91 338.91 324.37"/>
          <path class="cls-1" d="M374.68,309.98c1.11-1.4,1.67-3.07,1.67-5.02,0-2.49-.89-4.49-2.67-6.01-1.61-1.36-4.23-2.04-7.86-2.04h-4.86v27.46h4.15v-11.25h.75l7.85,11.25h5.07l-8.5-11.71c1.83-.39,3.3-1.29,4.41-2.69ZM365.11,309.52v-8.72h1.48c3.82,0,5.73,1.4,5.73,4.21,0,3-1.96,4.5-5.89,4.5h-1.32Z"/>
          <path class="cls-1" d="M406.86,300.59c-2.8-2.8-6.15-4.2-10.07-4.2s-7.35,1.39-10.18,4.16c-2.83,2.77-4.25,6.1-4.25,9.96,0,4.4,1.55,7.96,4.66,10.67,2.82,2.46,6,3.68,9.55,3.68,4.01,0,7.43-1.38,10.26-4.15,2.82-2.75,4.23-6.1,4.23-10.05s-1.4-7.29-4.22-10.09ZM403.92,317.99c-1.98,1.99-4.41,2.99-7.29,2.99-2.66,0-5-.98-7.02-2.93-2.04-1.96-3.06-4.45-3.06-7.48s.98-5.32,2.95-7.29c1.97-1.99,4.38-2.99,7.24-2.99s5.28.99,7.22,2.99c1.96,1.98,2.94,4.43,2.94,7.36s-.99,5.34-2.97,7.36Z"/>
        </g>
        <g>
          <g>
            <path class="cls-1" d="M149.9,252.86c-3.51.66-6.57,9.97-8.18,14.49-1.3,3.66-2.69,7.43-4.08,11.23-.24-.31-.49-.62-.74-.93-4.58-5.37-12.03-8.54-22.16-9.42-10.12-.88-18.01.94-23.46,5.44-5.92,4.9-9.34,12.1-10.15,21.39-.52,5.94.17,11.21,2.05,15.68,1.99,4.72,4.91,8.31,8.69,10.67,3.61,2.25,8.73,3.6,16.13,4.25l3.42.3c5.96.52,10.54.33,14.16-.59.29,3.41,1.39,6.05,3.84,6.72,7.89,2.16,9.53-9.94,11.12-16.45,3.32-13.6,7.38-27.02,10.58-41.94.91-4.25,4.38-21.9-1.22-20.85Z"/>
            <path class="cls-2" d="M137.08,299.96c-.44,4.96-1.7,9.05-3.79,12.29-2.09,3.23-4.6,5.45-7.55,6.63-2.94,1.19-7.54,1.51-13.79.96l-1.71-.15-1.71-.15c-6.25-.55-10.73-1.66-13.42-3.34-2.69-1.68-4.78-4.3-6.28-7.85-1.49-3.55-2.02-7.8-1.59-12.76.67-7.63,3.32-13.36,7.96-17.2,4.18-3.45,10.51-4.8,19.02-4.05,8.5.74,14.5,3.17,18.02,7.29,3.9,4.58,5.51,10.68,4.85,18.31ZM112.32,287.6c-7.1-.62-9.14.87-9.35,1.04-.64.53-2.64,2.18-3.15,8.06-.24,2.71-.03,4.92.6,6.41.45,1.05.84,1.53,1,1.66.33.15,2.03.83,6.48,1.29l2.78.23,2.77.26c4.46.31,6.26-.06,6.61-.15.18-.1.66-.5,1.28-1.47.88-1.36,1.46-3.5,1.7-6.21.52-5.88-1.16-7.85-1.7-8.48-.18-.21-1.93-2.04-9.02-2.65Z"/>
          </g>
          <g>
            <path class="cls-1" d="M73.81,352.39c-1.53-1.16-3.28-1.77-5.28-1.77-2.48,0-4.6.87-6.37,2.6-1.77,1.74-2.66,3.82-2.66,6.24,0,2.76.97,4.98,2.92,6.68,1.77,1.54,3.76,2.3,5.98,2.3,2.05,0,3.85-.61,5.41-1.77v1.31h3.76v-25.69h-3.76v10.1ZM72.25,363.29c-1.05,1.03-2.33,1.54-3.82,1.54-1.32,0-2.51-.46-3.56-1.37-1.16-1.01-1.74-2.34-1.74-3.97,0-1.44.53-2.68,1.59-3.71,1.05-1.04,2.31-1.55,3.79-1.55s2.71.52,3.75,1.56c.98.98,1.49,2.15,1.55,3.5v.51c-.06,1.36-.56,2.53-1.55,3.49Z"/>
            <polygon class="cls-1" points="84.13 342.29 84.13 345.93 94.68 345.93 82.07 367.98 100.77 367.98 100.77 364.34 88.44 364.34 101.06 342.29 84.13 342.29"/>
            <polygon class="cls-1" points="106.66 367.98 120.84 367.98 120.84 364.34 110.54 364.34 110.54 355.75 120.54 355.75 120.54 352.1 110.54 352.1 110.54 345.93 120.84 345.93 120.84 342.29 106.66 342.29 106.66 367.98"/>
            <path class="cls-1" d="M140.12,354.52c1.04-1.31,1.56-2.87,1.56-4.69,0-2.33-.84-4.21-2.5-5.62-1.51-1.28-3.96-1.92-7.35-1.92h-4.55v25.69h3.88v-10.52h.7l7.34,10.52h4.74l-7.96-10.95c1.71-.37,3.09-1.2,4.13-2.51ZM131.17,354.09v-8.15h1.38c3.57,0,5.36,1.32,5.36,3.94,0,2.81-1.83,4.21-5.51,4.21h-1.23Z"/>
            <path class="cls-1" d="M170.22,345.73c-2.62-2.62-5.75-3.93-9.42-3.93s-6.88,1.3-9.52,3.89c-2.65,2.6-3.98,5.7-3.98,9.32,0,4.12,1.45,7.44,4.36,9.98,2.64,2.29,5.62,3.44,8.93,3.44,3.75,0,6.95-1.29,9.6-3.88,2.64-2.57,3.96-5.71,3.96-9.4s-1.31-6.81-3.94-9.43ZM167.47,362.01c-1.85,1.86-4.12,2.79-6.82,2.79-2.48,0-4.68-.92-6.57-2.74-1.91-1.83-2.86-4.16-2.86-7s.92-4.97,2.76-6.82c1.84-1.86,4.1-2.79,6.77-2.79s4.93.93,6.76,2.79c1.83,1.86,2.74,4.15,2.74,6.88s-.93,5-2.78,6.88Z"/>
          </g>
        </g>
      </g>
    </g>
  </g>
</svg>